# xmcd CD database file
#
# Track frame offsets:
#	150
#	31480
#	59837
#	85802
#	129615
#	141871
#	166576
#
# Disc length: 2395 seconds
#
# Revision: 0
# Processed by: cddbd v1.5.1PL0 Copyright (c) Steve Scherf et al.
# Submitted via: CDex 1.60beta1
#
DISCID=5d095907
DTITLE=はにぃぽっと - 「ついつい 〜ツインテールツインズ〜」 オリジナルドラマCD 「夏ごきげんよう！」
DYEAR=2005
DGENRE=Game
TTITLE0=いつきぶぶ〜ん！
TTITLE1=カキゴキッキー
TTITLE2=かき氷勝負!!
TTITLE3=やっと回復？
TTITLE4=悪巧みじゃない！
TTITLE5=美紅のお披露目
TTITLE6=たいへんだよ〜！
EXTD=YEAR: 2005
EXTT0=
EXTT1=
EXTT2=
EXTT3=
EXTT4=
EXTT5=
EXTT6=
PLAYORDER=
